PathFileType	4	(x/y/z)	S01_SL_Cal.trc
DataRate	CameraRate	NumFrames	NumMarkers	Units	OrigDataRate	OrigDataStartFrame	OrigNumFrames
240	240	5	51	mm	240	2101	2400
Frame#	Time	Sternum			R.Acromium			L.Acromium			Top.Head			R.ASIS			L.ASIS			R.PSIS			L.PSIS			R.Great.Tro			L.Great.Tro			R.Iliac.Crest			L.Iliac.Crest			V.Sacral			R.Thigh.Upper.Post			R.Thigh.Lower.Ant			R.Thigh.Lower.Post			R.Thigh.Upper.Ant			R.Knee.Lat			R.Knee.Med			R.Shank.Upper.Post			R.Shank.Lower.Ant			R.Shank.Lower.Post			R.Shank.Upper.Ant			R.Ankle.Lat			R.Ankle.Med			R.Heel.Upper			R.Heel.Med			R.Heel.Lat			R.Toe.Lat			R.Toe.Med			R.Toe.Tip			L.Thigh.Upper.Post			L.Thigh.Lower.Ant			L.Thigh.Lower.Post			L.Thigh.Upper.Ant			L.Knee.Lat			L.Knee.Med			L.Shank.Upper.Post			L.Shank.Lower.Ant			L.Shank.Lower.Post			L.Shank.Upper.Ant			L.Ankle.Lat			L.Ankle.Med			L.Heel.Upper			L.Heel.Med			L.Heel.Lat			L.Toe.Lat			L.Toe.Med			L.Toe.Tip			Cervical.Spine			Back			
		X1	Y1	Z1	X2	Y2	Z2	X3	Y3	Z3	X4	Y4	Z4	X5	Y5	Z5	X6	Y6	Z6	X7	Y7	Z7	X8	Y8	Z8	X9	Y9	Z9	X10	Y10	Z10	X11	Y11	Z11	X12	Y12	Z12	X13	Y13	Z13	X14	Y14	Z14	X15	Y15	Z15	X16	Y16	Z16	X17	Y17	Z17	X18	Y18	Z18	X19	Y19	Z19	X20	Y20	Z20	X21	Y21	Z21	X22	Y22	Z22	X23	Y23	Z23	X24	Y24	Z24	X25	Y25	Z25	X26	Y26	Z26	X27	Y27	Z27	X28	Y28	Z28	X29	Y29	Z29	X30	Y30	Z30	X31	Y31	Z31	X32	Y32	Z32	X33	Y33	Z33	X34	Y34	Z34	X35	Y35	Z35	X36	Y36	Z36	X37	Y37	Z37	X38	Y38	Z38	X39	Y39	Z39	X40	Y40	Z40	X41	Y41	Z41	X42	Y42	Z42	X43	Y43	Z43	X44	Y44	Z44	X45	Y45	Z45	X46	Y46	Z46	X47	Y47	Z47	X48	Y48	Z48	X49	Y49	Z49	X50	Y50	Z50	X51	Y51	Z51	

2101	8.75	730.32	1312.3	259.35	586.67	1553.7	440.3	545.41	1564.2	115.23	525.35	1869	280.38	709.57	1045.4	418.45	702.4	1046.5	147.08	468.55	1079.8	332.14	462.67	1078.2	228.68	629.15	991.42	500.66	587.85	995.19	72.584	615.81	1142	483.54	583.31	1124.8	79.164	453.5	1042.3	278.98	585.69	694.2	496.24	645.4	614.39	471.61	577.17	606.03	480.8	657.48	703.68	486.31	591.32	536.63	476.91	595.81	526.48	334.88	509.79	390.36	513.2	560.25	296.87	480.7	496.59	320.4	507.67	569.77	369.44	491.77	476.02	111.87	489.98	509.22	109.65	398.34	408.6	78.224	435.74	420.22	47.13	407.16	416.61	48.905	471.8	605.14	34.248	529.03	636.52	39.966	405.79	699.99	54.599	460.99	521.77	726.01	84.011	595.68	644.75	72.11	520.51	635.17	94.937	588.04	739.49	59.589	554.52	541.25	78.879	589.17	528.91	215.67	482.93	411.12	55.661	539.46	315.99	66.008	478.5	333.44	52.566	544.63	392.9	64.091	458.97	112.81	75.356	491.49	118.35	168.61	391.12	79.259	120.54	401.84	51.738	152.77	398.93	53.505	90.903	602.63	37.5	41.666	628.47	46.961	163.34	690.07	57.997	112.43	482.9	1597.5	286.26	428.83	1278.1	304.17
2102	8.7542	730.34	1312.3	259.34	586.67	1553.7	440.3	545.39	1564.2	115.23	525.34	1869	280.37	709.58	1045.4	418.45	702.4	1046.5	147.08	468.55	1079.8	332.15	462.67	1078.2	228.69	629.16	991.42	500.66	587.85	995.19	72.588	615.83	1142	483.54	583.31	1124.8	79.169	453.5	1042.3	278.99	585.7	694.19	496.24	645.41	614.39	471.62	577.18	606.03	480.81	657.49	703.68	486.31	591.32	536.63	476.91	595.82	526.48	334.88	509.8	390.36	513.21	560.26	296.87	480.7	496.59	320.41	507.67	569.77	369.44	491.77	476.02	111.87	489.98	509.22	109.65	398.34	408.6	78.225	435.74	420.22	47.131	407.16	416.61	48.905	471.8	605.14	34.249	529.04	636.52	39.966	405.79	699.99	54.599	460.99	521.77	726.01	84.013	595.68	644.75	72.108	520.51	635.17	94.938	588.04	739.49	59.589	554.52	541.25	78.879	589.17	528.91	215.67	482.93	411.12	55.662	539.46	315.99	66.008	478.5	333.44	52.567	544.63	392.9	64.091	458.97	112.81	75.356	491.49	118.35	168.61	391.12	79.26	120.54	401.84	51.74	152.77	398.93	53.506	90.904	602.63	37.5	41.666	628.47	46.962	163.34	690.07	57.997	112.43	482.89	1597.5	286.27	428.84	1278.1	304.18
2103	8.7583	730.36	1312.3	259.34	586.67	1553.7	440.29	545.38	1564.2	115.23	525.34	1869	280.36	709.59	1045.4	418.45	702.4	1046.5	147.08	468.56	1079.8	332.16	462.67	1078.2	228.7	629.17	991.42	500.66	587.84	995.19	72.591	615.85	1142	483.54	583.31	1124.8	79.175	453.51	1042.3	279	585.71	694.19	496.24	645.42	614.39	471.62	577.19	606.03	480.81	657.5	703.68	486.31	591.33	536.62	476.92	595.82	526.48	334.88	509.81	390.37	513.21	560.26	296.87	480.71	496.6	320.41	507.67	569.78	369.44	491.77	476.02	111.87	489.98	509.22	109.65	398.34	408.6	78.226	435.74	420.22	47.131	407.16	416.61	48.906	471.8	605.14	34.25	529.04	636.52	39.966	405.79	699.99	54.599	460.99	521.77	726.01	84.016	595.67	644.75	72.107	520.51	635.17	94.94	588.04	739.49	59.589	554.52	541.25	78.879	589.18	528.9	215.67	482.93	411.12	55.664	539.46	315.99	66.008	478.51	333.44	52.569	544.63	392.9	64.091	458.97	112.81	75.357	491.49	118.35	168.61	391.12	79.26	120.54	401.84	51.742	152.77	398.93	53.506	90.904	602.63	37.5	41.666	628.47	46.963	163.34	690.07	57.998	112.43	482.89	1597.5	286.27	428.84	1278.1	304.18
2104	8.7625	730.38	1312.4	259.33	586.68	1553.7	440.29	545.37	1564.2	115.23	525.33	1869	280.36	709.6	1045.4	418.44	702.4	1046.5	147.08	468.56	1079.8	332.16	462.68	1078.2	228.71	629.19	991.42	500.66	587.84	995.2	72.595	615.87	1142	483.54	583.31	1124.8	79.18	453.51	1042.4	279.01	585.72	694.19	496.25	645.43	614.39	471.62	577.2	606.03	480.81	657.5	703.68	486.31	591.34	536.62	476.92	595.83	526.48	334.88	509.81	390.37	513.21	560.26	296.87	480.71	496.6	320.41	507.68	569.78	369.44	491.77	476.02	111.87	489.98	509.22	109.65	398.34	408.6	78.227	435.74	420.22	47.132	407.16	416.61	48.907	471.8	605.14	34.251	529.04	636.52	39.966	405.79	699.99	54.599	460.99	521.77	726.01	84.018	595.67	644.75	72.106	520.51	635.17	94.941	588.04	739.49	59.589	554.53	541.25	78.88	589.18	528.9	215.67	482.93	411.12	55.665	539.46	315.99	66.008	478.51	333.44	52.57	544.63	392.9	64.091	458.97	112.81	75.357	491.49	118.35	168.61	391.12	79.261	120.54	401.84	51.744	152.77	398.93	53.507	90.904	602.63	37.5	41.666	628.47	46.964	163.34	690.07	57.998	112.43	482.88	1597.5	286.27	428.85	1278.1	304.19
2105	8.7667	730.4	1312.4	259.33	586.68	1553.7	440.29	545.35	1564.2	115.23	525.33	1869	280.35	709.61	1045.4	418.44	702.4	1046.5	147.08	468.57	1079.8	332.17	462.68	1078.2	228.72	629.2	991.42	500.67	587.84	995.2	72.598	615.89	1142	483.54	583.31	1124.8	79.185	453.51	1042.4	279.02	585.72	694.19	496.25	645.44	614.39	471.62	577.21	606.03	480.81	657.51	703.68	486.31	591.34	536.62	476.92	595.83	526.48	334.88	509.82	390.37	513.22	560.27	296.87	480.71	496.61	320.41	507.68	569.79	369.44	491.77	476.02	111.88	489.98	509.22	109.65	398.34	408.6	78.228	435.74	420.22	47.133	407.16	416.61	48.908	471.8	605.14	34.252	529.04	636.52	39.966	405.79	699.99	54.599	460.99	521.77	726.01	84.02	595.67	644.75	72.105	520.51	635.17	94.943	588.03	739.49	59.589	554.53	541.25	78.88	589.19	528.9	215.67	482.93	411.12	55.666	539.46	315.99	66.008	478.51	333.44	52.571	544.63	392.9	64.09	458.97	112.81	75.357	491.48	118.35	168.61	391.12	79.261	120.54	401.84	51.744	152.77	398.93	53.508	90.904	602.63	37.5	41.667	628.47	46.965	163.34	690.07	57.998	112.43	482.87	1597.5	286.27	428.87	1278.1	304.2
